<svg width="22" height="15" viewBox="0 0 22 15" fill="none" xmlns="http://www.w3.org/2000/svg">
    <path
        d="M13.9054 12.274C13.9054 12.274 11.6374 14.4043 8.52188 13.3044C8.52188 13.3068 11.7772 16.5846 13.9054 12.274Z"
        fill="#3A86FF" />
    <path
        d="M16.6584 4.30099C17.372 4.10864 18.1232 4.14688 18.8164 4.41086C18.9064 4.44215 18.9944 4.47966 19.0798 4.52317C19.1669 4.56467 19.2562 4.60252 19.341 4.64524C19.4257 4.68797 19.5082 4.74535 19.5907 4.79662L19.7155 4.87597L19.8301 4.96509C19.9079 5.02612 19.9881 5.08716 20.066 5.14942C20.1439 5.21168 20.2115 5.28615 20.2848 5.35573C20.4311 5.49646 20.5678 5.64823 20.6937 5.80986C21.2098 6.47319 21.5513 7.27067 21.6834 8.12077C21.6925 8.17327 21.7028 8.22698 21.7109 8.28069L21.7246 8.44184L21.7475 8.76534C21.7527 8.87392 21.7527 8.98271 21.7475 9.09128C21.7475 9.19993 21.7475 9.30858 21.7349 9.41723C21.6557 10.2904 21.37 11.128 20.9045 11.8514C20.8449 11.9406 20.7796 12.0248 20.7178 12.1115C20.657 12.1972 20.5912 12.2787 20.5208 12.3556C20.3845 12.5165 20.2379 12.667 20.0821 12.8061C20.0042 12.8744 19.9286 12.9477 19.8472 13.0112L19.5952 13.1931C19.554 13.2224 19.5116 13.2541 19.4693 13.2822L19.3364 13.3591L19.0695 13.5105C18.979 13.5569 18.8839 13.5935 18.7923 13.6325C18.7005 13.6751 18.6064 13.7118 18.5105 13.7424C18.3207 13.8065 18.1271 13.8571 17.9309 13.8938C17.1636 14.0449 16.3722 13.9728 15.6401 13.685C14.9481 13.414 14.3492 12.9263 13.9219 12.286C14.2315 12.4351 14.5527 12.5552 14.8818 12.6449C15.038 12.6876 15.1963 12.721 15.356 12.745C15.5116 12.7701 15.6684 12.7856 15.8256 12.7914C15.9783 12.8 16.1312 12.8 16.2838 12.7914C16.4341 12.7828 16.5837 12.7637 16.7317 12.7341C16.8771 12.6974 17.0226 12.6828 17.1624 12.6315L17.3708 12.568C17.4384 12.5387 17.506 12.5119 17.5724 12.485C17.8367 12.3773 18.09 12.2411 18.3284 12.0785C18.7848 11.7496 19.1743 11.3261 19.4738 10.8333L19.5746 10.6465L19.6262 10.5538C19.6422 10.5208 19.6537 10.4878 19.6686 10.4549L19.7556 10.2608C19.7842 10.1961 19.8014 10.1253 19.8266 10.0581L19.8621 9.95803C19.8759 9.92513 19.8862 9.89075 19.8931 9.85549C19.9102 9.7859 19.9263 9.71632 19.9457 9.64795C19.9538 9.61255 19.9652 9.57837 19.9721 9.54297L19.9881 9.43676C19.9996 9.36596 20.011 9.29515 20.0236 9.22313C20.0362 9.1511 20.0351 9.07908 20.042 9.00705L20.0511 8.8984C20.0565 8.86249 20.0584 8.82608 20.0569 8.78975V8.46137C20.0569 8.42597 20.05 8.38934 20.0465 8.35272L20.0271 8.1342C20.0194 8.06162 20.0084 7.9895 19.9939 7.91813C19.979 7.8461 19.9721 7.77163 19.9538 7.70083L19.8976 7.48719L19.8713 7.37855L19.8335 7.27356C19.8094 7.20398 19.7842 7.13439 19.7613 7.06237C19.7384 6.99034 19.7018 6.92564 19.672 6.85606C19.6442 6.7861 19.6125 6.71802 19.5769 6.65219C19.5002 6.52401 19.4383 6.38118 19.3478 6.2591C19.3043 6.19562 19.2654 6.1297 19.2195 6.06744C19.1737 6.00518 19.1256 5.94536 19.0787 5.88555L19.0076 5.79277L18.9286 5.70853C18.8759 5.65116 18.8232 5.595 18.7705 5.53518C18.7178 5.47537 18.656 5.42898 18.5987 5.37404C18.5418 5.31867 18.4821 5.26651 18.42 5.21779C18.2963 5.11535 18.167 5.02078 18.0329 4.93457L17.8267 4.80028C17.7545 4.76366 17.6824 4.72459 17.6079 4.68553C17.4587 4.60719 17.3058 4.53711 17.1498 4.47556C17.0705 4.44135 16.9894 4.412 16.9069 4.38766C16.8256 4.36081 16.7431 4.33151 16.6584 4.30099Z"
        fill="#FDBC0B" />
    <path
        d="M4.82066 3.68896C4.82066 3.68896 1.18163 4.21756 0.292778 7.04242C-0.575457 9.80135 0.521864 12.603 3.12657 13.8018C5.96609 15.1068 10.9395 13.4356 13.8386 8.30103L14.6267 9.30572L15.6919 5.45542L12.4916 7.4587L13.5317 8.01415C13.5317 8.01415 8.79874 14.1961 3.69814 12.1745C3.09501 11.9101 2.58313 11.4538 2.23238 10.8678C1.88162 10.2818 1.70908 9.59479 1.73831 8.90043C1.78298 6.38931 3.64087 5.57383 5.34412 5.28451L5.26852 5.10384"
        fill="#9635F0" />
    <path
        d="M14.6889 2.76553C14.6889 2.76553 13.0326 -0.487814 8.9881 0.0627526C4.94359 0.613319 3.30219 4.30614 6.33071 6.15073C6.33071 6.15073 4.48656 2.42128 9.31913 1.16877C12.3706 0.378932 14.6889 2.76553 14.6889 2.76553Z"
        fill="#FF006E" />
</svg>
