<svg width="101" height="31" viewBox="0 0 101 31" fill="none" xmlns="http://www.w3.org/2000/svg">
    <path
        d="M37.5923 20.2123C37.3365 20.2123 37.1676 20.1028 37.0857 19.8837L34.8904 13.7846C34.8801 13.7584 34.875 13.7189 34.875 13.6663C34.875 13.5875 34.9057 13.5218 34.9671 13.4692C35.0285 13.4078 35.1053 13.3772 35.1974 13.3772H36.3642C36.4665 13.3772 36.5535 13.4035 36.6251 13.456C36.707 13.5086 36.7582 13.5656 36.7787 13.6269L38.2678 17.9515L39.8491 13.6663C39.8798 13.5875 39.931 13.5218 40.0026 13.4692C40.0845 13.4078 40.1868 13.3772 40.3096 13.3772H41.0926C41.2154 13.3772 41.3126 13.4078 41.3843 13.4692C41.4662 13.5218 41.5173 13.5875 41.5378 13.6663L43.1344 17.9515L44.6236 13.6269C44.644 13.5656 44.6901 13.5086 44.7617 13.456C44.8334 13.4035 44.9255 13.3772 45.0381 13.3772H46.1895C46.2816 13.3772 46.3584 13.4078 46.4198 13.4692C46.4914 13.5218 46.5272 13.5875 46.5272 13.6663L46.4965 13.7846L44.3012 19.8837C44.2602 19.9888 44.1988 20.0721 44.117 20.1334C44.0453 20.186 43.943 20.2123 43.8099 20.2123H42.7967C42.5306 20.2123 42.3617 20.1028 42.2901 19.8837L40.7088 15.7563L39.1122 19.8837C39.0303 20.1028 38.8563 20.2123 38.5902 20.2123H37.5923Z"
        fill="#020547" />
    <path
        d="M51.3423 20.3438C50.1346 20.3438 49.2032 20.0809 48.5482 19.5551C47.8932 19.0293 47.5401 18.302 47.4889 17.3731L47.4735 16.7947L47.4889 16.2164C47.5401 15.2963 47.8983 14.5733 48.5635 14.0475C49.2288 13.513 50.155 13.2457 51.3423 13.2457C52.5193 13.2457 53.4404 13.513 54.1056 14.0475C54.7709 14.5733 55.1291 15.2963 55.1803 16.2164C55.1905 16.3215 55.1956 16.5143 55.1956 16.7947C55.1956 17.0752 55.1905 17.2679 55.1803 17.3731C55.1291 18.302 54.776 19.0293 54.121 19.5551C53.466 20.0809 52.5397 20.3438 51.3423 20.3438ZM51.3423 19.0162C51.8847 19.0162 52.2992 18.8716 52.5858 18.5824C52.8826 18.2932 53.0412 17.8682 53.0617 17.3074C53.0719 17.2197 53.0771 17.0489 53.0771 16.7947C53.0771 16.5406 53.0719 16.3697 53.0617 16.2821C53.0412 15.7213 52.8826 15.2963 52.5858 15.0071C52.289 14.7091 51.8745 14.5602 51.3423 14.5602C50.7998 14.5602 50.3802 14.7091 50.0834 15.0071C49.7866 15.2963 49.628 15.7213 49.6075 16.2821L49.5921 16.7947L49.6075 17.3074C49.628 17.8682 49.7866 18.2932 50.0834 18.5824C50.3802 18.8716 50.7998 19.0162 51.3423 19.0162Z"
        fill="#020547" />
    <path
        d="M57.2647 20.2123C57.1624 20.2123 57.0754 20.1816 57.0037 20.1203C56.9321 20.059 56.8962 19.9845 56.8962 19.8968V13.7058C56.8962 13.6094 56.9321 13.5305 57.0037 13.4692C57.0754 13.4078 57.1624 13.3772 57.2647 13.3772H58.5236C58.6362 13.3772 58.7283 13.4078 58.7999 13.4692C58.8716 13.5305 58.9074 13.6094 58.9074 13.7058V14.2447C59.4191 13.6663 60.156 13.3772 61.1181 13.3772H61.7629C61.8754 13.3772 61.9624 13.4078 62.0238 13.4692C62.0955 13.5218 62.1313 13.5962 62.1313 13.6926V14.6522C62.1313 14.7398 62.0955 14.8143 62.0238 14.8756C61.9624 14.937 61.8754 14.9676 61.7629 14.9676H60.55C60.069 14.9676 59.6903 15.0859 59.414 15.3225C59.1377 15.5592 58.9995 15.8834 58.9995 16.2952V19.8968C58.9995 19.9845 58.9637 20.059 58.892 20.1203C58.8204 20.1816 58.7334 20.2123 58.631 20.2123H57.2647Z"
        fill="#020547" />
    <path
        d="M63.7117 20.2123C63.6094 20.2123 63.5224 20.1816 63.4507 20.1203C63.3791 20.059 63.3433 19.9845 63.3433 19.8968V11.1952C63.3433 11.0988 63.3791 11.0243 63.4507 10.9717C63.5224 10.9104 63.6094 10.8797 63.7117 10.8797H64.986C65.0883 10.8797 65.1753 10.9104 65.2469 10.9717C65.3186 11.0331 65.3544 11.1075 65.3544 11.1952V15.6906L67.9029 13.6006C67.9336 13.5831 67.9796 13.5524 68.041 13.5086C68.1127 13.456 68.1792 13.421 68.2406 13.4035C68.302 13.3859 68.3788 13.3772 68.4709 13.3772H69.9293C70.0317 13.3772 70.1136 13.4035 70.175 13.456C70.2364 13.5086 70.2671 13.5787 70.2671 13.6663C70.2671 13.7452 70.2159 13.8241 70.1136 13.9029L66.9817 16.4398L70.4974 19.6997C70.5895 19.7785 70.6355 19.853 70.6355 19.9231C70.6355 20.0108 70.6048 20.0809 70.5434 20.1334C70.482 20.186 70.4052 20.2123 70.3131 20.2123H68.824C68.6807 20.2123 68.5732 20.1992 68.5016 20.1729C68.4402 20.1378 68.3583 20.0765 68.256 19.9888L65.3544 17.3468V19.8968C65.3544 19.9845 65.3186 20.059 65.2469 20.1203C65.1753 20.1816 65.0883 20.2123 64.986 20.2123H63.7117Z"
        fill="#020547" />
    <path
        d="M72.1056 12.2599C72.0033 12.2599 71.9163 12.2292 71.8446 12.1679C71.773 12.1065 71.7372 12.032 71.7372 11.9444V10.9849C71.7372 10.8885 71.773 10.8096 71.8446 10.7483C71.9163 10.6869 72.0033 10.6562 72.1056 10.6562H73.518C73.6306 10.6562 73.7227 10.6869 73.7943 10.7483C73.866 10.8096 73.9018 10.8885 73.9018 10.9849V11.9444C73.9018 12.032 73.8609 12.1065 73.779 12.1679C73.7073 12.2292 73.6203 12.2599 73.518 12.2599H72.1056ZM72.167 20.2123C72.0647 20.2123 71.9777 20.1816 71.906 20.1203C71.8344 20.059 71.7986 19.9845 71.7986 19.8968V13.6926C71.7986 13.5962 71.8344 13.5218 71.906 13.4692C71.9777 13.4078 72.0647 13.3772 72.167 13.3772H73.4719C73.5743 13.3772 73.6613 13.4078 73.7329 13.4692C73.8046 13.5305 73.8404 13.605 73.8404 13.6926V19.8968C73.8404 19.9845 73.8046 20.059 73.7329 20.1203C73.6613 20.1816 73.5743 20.2123 73.4719 20.2123H72.167Z"
        fill="#020547" />
    <path
        d="M79.4078 20.3438C78.2001 20.3438 77.2687 20.0809 76.6137 19.5551C75.9587 19.0293 75.6056 18.302 75.5544 17.3731L75.5391 16.7947L75.5544 16.2164C75.6056 15.2963 75.9638 14.5733 76.6291 14.0475C77.2943 13.513 78.2206 13.2457 79.4078 13.2457C80.5848 13.2457 81.5059 13.513 82.1712 14.0475C82.8364 14.5733 83.1947 15.2963 83.2458 16.2164C83.2561 16.3215 83.2612 16.5143 83.2612 16.7947C83.2612 17.0752 83.2561 17.2679 83.2458 17.3731C83.1947 18.302 82.8416 19.0293 82.1865 19.5551C81.5315 20.0809 80.6053 20.3438 79.4078 20.3438ZM79.4078 19.0162C79.9502 19.0162 80.3647 18.8716 80.6513 18.5824C80.9481 18.2932 81.1068 17.8682 81.1272 17.3074C81.1375 17.2197 81.1426 17.0489 81.1426 16.7947C81.1426 16.5406 81.1375 16.3697 81.1272 16.2821C81.1068 15.7213 80.9481 15.2963 80.6513 15.0071C80.3545 14.7091 79.94 14.5602 79.4078 14.5602C78.8654 14.5602 78.4457 14.7091 78.1489 15.0071C77.8521 15.2963 77.6935 15.7213 77.673 16.2821L77.6577 16.7947L77.673 17.3074C77.6935 17.8682 77.8521 18.2932 78.1489 18.5824C78.4457 18.8716 78.8654 19.0162 79.4078 19.0162Z"
        fill="#020547" />
    <path
        d="M85.3302 20.2123C85.2279 20.2123 85.1409 20.1816 85.0692 20.1203C84.9976 20.059 84.9618 19.9845 84.9618 19.8968V13.6926C84.9618 13.5962 84.9976 13.5218 85.0692 13.4692C85.1409 13.4078 85.2279 13.3772 85.3302 13.3772H86.543C86.6556 13.3772 86.7426 13.4078 86.804 13.4692C86.8757 13.5218 86.9115 13.5962 86.9115 13.6926V14.1395C87.4642 13.5437 88.2062 13.2457 89.1375 13.2457C90.2736 13.2457 91.0668 13.6357 91.5171 14.4156C91.7628 14.0651 92.1107 13.7846 92.5611 13.5743C93.0114 13.3553 93.4975 13.2457 94.0195 13.2457C94.8588 13.2457 95.5445 13.4911 96.0767 13.9818C96.6089 14.4725 96.875 15.1867 96.875 16.1244V19.8968C96.875 19.9845 96.8392 20.059 96.7675 20.1203C96.7061 20.1816 96.6191 20.2123 96.5066 20.2123H95.2323C95.13 20.2123 95.043 20.1816 94.9713 20.1203C94.8997 20.059 94.8639 19.9845 94.8639 19.8968V16.2295C94.8639 15.6775 94.7257 15.2787 94.4494 15.0334C94.1833 14.788 93.8302 14.6653 93.3901 14.6653C92.9909 14.6653 92.6481 14.7924 92.3615 15.0465C92.0851 15.2919 91.947 15.6862 91.947 16.2295V19.8968C91.947 19.9845 91.9112 20.059 91.8395 20.1203C91.7781 20.1816 91.6911 20.2123 91.5785 20.2123H90.289C90.1866 20.2123 90.0996 20.1816 90.028 20.1203C89.9563 20.059 89.9205 19.9845 89.9205 19.8968V16.2295C89.9205 15.6862 89.7823 15.2919 89.506 15.0465C89.2297 14.7924 88.8766 14.6653 88.4467 14.6653C88.0476 14.6653 87.7047 14.7924 87.4181 15.0465C87.1418 15.2919 87.0036 15.6862 87.0036 16.2295V19.8968C87.0036 19.9845 86.9678 20.059 86.8961 20.1203C86.8347 20.1816 86.7477 20.2123 86.6352 20.2123H85.3302Z"
        fill="#020547" />
    <path
        d="M18.7394 20.8705C18.7394 20.8705 16.315 23.1477 12.9846 21.9719C12.9846 21.9745 16.4644 25.4784 18.7394 20.8705Z"
        fill="#3A86FF" />
    <path
        d="M21.6822 12.3476C22.4451 12.142 23.2481 12.1828 23.989 12.465C24.0853 12.4985 24.1793 12.5386 24.2707 12.5851C24.3637 12.6295 24.4592 12.6699 24.5498 12.7156C24.6404 12.7613 24.7286 12.8226 24.8168 12.8774L24.9502 12.9622L25.0727 13.0575C25.1559 13.1227 25.2416 13.188 25.3249 13.2545C25.4082 13.3211 25.4804 13.4007 25.5588 13.4751C25.7152 13.6255 25.8613 13.7877 25.9959 13.9605C26.5475 14.6696 26.9126 15.5221 27.0538 16.4308C27.0636 16.4869 27.0746 16.5443 27.0832 16.6017L27.0979 16.774L27.1223 17.1198C27.1279 17.2359 27.1279 17.3522 27.1223 17.4682C27.1223 17.5844 27.1223 17.7005 27.1089 17.8167C27.0243 18.7501 26.7188 19.6454 26.2212 20.4188C26.1575 20.514 26.0877 20.6041 26.0216 20.6967C25.9566 20.7884 25.8863 20.8755 25.811 20.9577C25.6654 21.1297 25.5087 21.2906 25.342 21.4392C25.2588 21.5123 25.178 21.5906 25.091 21.6585L24.8217 21.8529C24.7776 21.8842 24.7323 21.9182 24.687 21.9482L24.5449 22.0304L24.2596 22.1922C24.1629 22.2418 24.0613 22.2809 23.9633 22.3227C23.8652 22.3682 23.7646 22.4074 23.6621 22.4401C23.4592 22.5086 23.2522 22.5627 23.0426 22.602C22.2223 22.7635 21.3763 22.6864 20.5937 22.3788C19.854 22.0891 19.2138 21.5678 18.7571 20.8833C19.088 21.0427 19.4313 21.1711 19.7831 21.267C19.9501 21.3125 20.1194 21.3483 20.2901 21.374C20.4564 21.4008 20.624 21.4173 20.7921 21.4236C20.9552 21.4327 21.1187 21.4327 21.2818 21.4236C21.4425 21.4144 21.6025 21.3939 21.7606 21.3622C21.9161 21.3231 22.0716 21.3074 22.221 21.2526L22.4438 21.1848C22.5161 21.1534 22.5883 21.1247 22.6593 21.096C22.9419 20.9808 23.2126 20.8352 23.4674 20.6615C23.9553 20.3099 24.3717 19.8572 24.6919 19.3304L24.7996 19.1308L24.8547 19.0316C24.8719 18.9964 24.8841 18.9611 24.9 18.9259L24.9931 18.7184C25.0237 18.6492 25.0421 18.5735 25.069 18.5018L25.1069 18.3948C25.1216 18.3596 25.1327 18.3228 25.14 18.2851C25.1584 18.2108 25.1755 18.1364 25.1963 18.0633C25.2049 18.0255 25.2171 17.9889 25.2245 17.9511L25.2416 17.8375C25.2539 17.7619 25.2661 17.6862 25.2796 17.6092C25.2931 17.5322 25.2918 17.4552 25.2992 17.3782L25.309 17.2621C25.3147 17.2237 25.3168 17.1848 25.3151 17.1459V16.7949C25.3151 16.757 25.3078 16.7179 25.3041 16.6787L25.2833 16.4452C25.2751 16.3676 25.2633 16.2905 25.2478 16.2142C25.2318 16.1372 25.2245 16.0576 25.2049 15.9819L25.1449 15.7535L25.1167 15.6374L25.0763 15.5252C25.0506 15.4508 25.0237 15.3764 24.9992 15.2994C24.9747 15.2224 24.9355 15.1532 24.9037 15.0789C24.874 15.0041 24.8401 14.9313 24.8021 14.8609C24.72 14.7239 24.6539 14.5712 24.5572 14.4407C24.5107 14.3729 24.469 14.3024 24.42 14.2359C24.3711 14.1693 24.3196 14.1054 24.2694 14.0414L24.1935 13.9422L24.109 13.8522C24.0527 13.7909 23.9964 13.7308 23.9401 13.6669C23.8837 13.603 23.8176 13.5534 23.7564 13.4946C23.6955 13.4354 23.6318 13.3797 23.5654 13.3276C23.4331 13.2181 23.295 13.117 23.1515 13.0249L22.9311 12.8813C22.854 12.8422 22.7769 12.8004 22.6973 12.7586C22.5378 12.6749 22.3743 12.6 22.2075 12.5342C22.1227 12.4976 22.0361 12.4662 21.9479 12.4402C21.861 12.4115 21.7728 12.3802 21.6822 12.3476Z"
        fill="#FDBC0B" />
    <path
        d="M9.02812 11.6934C9.02812 11.6934 5.13812 12.2584 4.18797 15.2781C3.25986 18.2273 4.43285 21.2222 7.2172 22.5036C10.2525 23.8986 15.569 22.1122 18.668 16.6235L19.5104 17.6975L20.6491 13.5816L17.2281 15.7231L18.3399 16.3168C18.3399 16.3168 13.2805 22.9251 7.82818 20.7641C7.18346 20.4815 6.63628 19.9937 6.26133 19.3673C5.88639 18.7409 5.70195 18.0065 5.73319 17.2642C5.78095 14.5799 7.76696 13.7082 9.58768 13.3989L9.50687 13.2058"
        fill="#9635F0" />
    <path
        d="M19.5769 10.7063C19.5769 10.7063 17.8064 7.22854 13.483 7.81708C9.15952 8.40562 7.40492 12.3531 10.6423 14.3249C10.6423 14.3249 8.67097 10.3383 13.8368 8.99937C17.0987 8.15506 19.5769 10.7063 19.5769 10.7063Z"
        fill="#FF006E" />
</svg>
