<svg width="11" height="8" viewBox="0 0 11 8" fill="none" xmlns="http://www.w3.org/2000/svg">
    <path opacity="0.6"
        d="M9.99979 0C9.82293 0 9.6533 0.070201 9.52824 0.195159C9.40318 0.320118 9.33292 0.489598 9.33292 0.666315V3.33158C9.33292 3.5083 9.26266 3.67777 9.13759 3.80273C9.01253 3.92769 8.84291 3.99789 8.66604 3.99789H2.27072L3.13765 3.13835C3.26323 3.01288 3.33378 2.8427 3.33378 2.66526C3.33378 2.48782 3.26323 2.31765 3.13765 2.19218C3.01208 2.06671 2.84176 1.99622 2.66417 1.99622C2.48658 1.99622 2.31627 2.06671 2.19069 2.19218L0.190068 4.19112C0.129356 4.25449 0.0817641 4.32922 0.0500246 4.41101C-0.0166749 4.57323 -0.0166749 4.75519 0.0500246 4.91741C0.0817641 4.9992 0.129356 5.07392 0.190068 5.13729L2.19069 7.13624C2.25269 7.19869 2.32644 7.24826 2.40771 7.28209C2.48897 7.31592 2.57614 7.33333 2.66417 7.33333C2.75221 7.33333 2.83937 7.31592 2.92064 7.28209C3.0019 7.24826 3.07566 7.19869 3.13765 7.13624C3.20016 7.0743 3.24977 7.0006 3.28363 6.9194C3.31748 6.83821 3.33491 6.75112 3.33491 6.66315C3.33491 6.57519 3.31748 6.4881 3.28363 6.4069C3.24977 6.32571 3.20016 6.25201 3.13765 6.19007L2.27072 5.33052H8.66604C9.19664 5.33052 9.70551 5.11992 10.0807 4.74505C10.4559 4.37017 10.6667 3.86173 10.6667 3.33158V0.666315C10.6667 0.489598 10.5964 0.320118 10.4713 0.195159C10.3463 0.070201 10.1767 0 9.99979 0Z"
        fill="white" />
</svg>
