<svg width="11" height="11" viewBox="0 0 11 11" fill="none" xmlns="http://www.w3.org/2000/svg">
    <path fill-rule="evenodd" clip-rule="evenodd"
        d="M9.88388 0.616117C10.372 1.10427 10.372 1.89573 9.88388 2.38388L2.38388 9.88388C1.89573 10.372 1.10427 10.372 0.616117 9.88388C0.127961 9.39573 0.127961 8.60427 0.616117 8.11612L8.11612 0.616117C8.60427 0.127961 9.39573 0.127961 9.88388 0.616117Z"
        fill="#FF776F" stroke="white" stroke-width="0.5" stroke-linecap="round"
        stroke-linejoin="round" />
    <path fill-rule="evenodd" clip-rule="evenodd"
        d="M0.616117 0.616117C1.10427 0.127961 1.89573 0.127961 2.38388 0.616117L9.88388 8.11612C10.372 8.60427 10.372 9.39573 9.88388 9.88388C9.39573 10.372 8.60427 10.372 8.11612 9.88388L0.616117 2.38388C0.127961 1.89573 0.127961 1.10427 0.616117 0.616117Z"
        fill="#FF776F" stroke="white" stroke-width="0.5" stroke-linecap="round"
        stroke-linejoin="round" />
</svg>
