<svg width="24" height="24" viewBox="0 0 24 24" fill="none" xmlns="http://www.w3.org/2000/svg">
    <path fill-rule="evenodd" clip-rule="evenodd"
        d="M12 4.63636C7.93318 4.63636 4.63636 7.93318 4.63636 12C4.63636 16.0668 7.93318 19.3636 12 19.3636C16.0668 19.3636 19.3636 16.0668 19.3636 12C19.3636 7.93318 16.0668 4.63636 12 4.63636ZM3 12C3 7.02944 7.02944 3 12 3C16.9706 3 21 7.02944 21 12C21 16.9706 16.9706 21 12 21C7.02944 21 3 16.9706 3 12Z"
        fill="#747474" />
    <path fill-rule="evenodd" clip-rule="evenodd"
        d="M14.7803 9.21967C15.0732 9.51256 15.0732 9.98744 14.7803 10.2803L10.2803 14.7803C9.98744 15.0732 9.51256 15.0732 9.21967 14.7803C8.92678 14.4874 8.92678 14.0126 9.21967 13.7197L13.7197 9.21967C14.0126 8.92678 14.4874 8.92678 14.7803 9.21967Z"
        fill="#747474" />
    <path fill-rule="evenodd" clip-rule="evenodd"
        d="M9.21967 9.21967C9.51256 8.92678 9.98744 8.92678 10.2803 9.21967L14.7803 13.7197C15.0732 14.0126 15.0732 14.4874 14.7803 14.7803C14.4874 15.0732 14.0126 15.0732 13.7197 14.7803L9.21967 10.2803C8.92678 9.98744 8.92678 9.51256 9.21967 9.21967Z"
        fill="#747474" />
</svg>
