<svg width="16" height="16" viewBox="0 0 16 16" fill="none" xmlns="http://www.w3.org/2000/svg">
    <path fill-rule="evenodd" clip-rule="evenodd"
        d="M2.66668 3.33333C2.30154 3.33333 2.00002 3.63486 2.00002 4V12C2.00002 12.3651 2.30154 12.6667 2.66668 12.6667H13.3333C13.6985 12.6667 14 12.3651 14 12V4C14 3.63486 13.6985 3.33333 13.3333 3.33333H2.66668ZM0.666683 4C0.666683 2.89848 1.56516 2 2.66668 2H13.3333C14.4349 2 15.3333 2.89848 15.3333 4V12C15.3333 13.1015 14.4349 14 13.3333 14H2.66668C1.56516 14 0.666683 13.1015 0.666683 12V4Z"
        fill="#0E0F12" />
    <path fill-rule="evenodd" clip-rule="evenodd"
        d="M0.787195 3.61769C0.998338 3.31606 1.41403 3.2427 1.71566 3.45385L6.85309 7.05005C7.54173 7.5321 8.4583 7.5321 9.14694 7.05005L14.2844 3.45385C14.586 3.2427 15.0017 3.31606 15.2128 3.61769C15.424 3.91932 15.3506 4.33501 15.049 4.54615L9.91156 8.14236C8.76383 8.94577 7.23621 8.94577 6.08848 8.14236L0.951042 4.54615C0.649409 4.33501 0.576052 3.91932 0.787195 3.61769Z"
        fill="#0E0F12" />
</svg>
