<svg width="16" height="16" viewBox="0 0 16 16" fill="none" xmlns="http://www.w3.org/2000/svg">
    <path
        d="M14.537 6.69437H14V6.66671H8.00004V9.33337H11.7677C11.218 10.8857 9.74104 12 8.00004 12C5.79104 12 4.00004 10.209 4.00004 8.00004C4.00004 5.79104 5.79104 4.00004 8.00004 4.00004C9.01971 4.00004 9.94737 4.38471 10.6537 5.01304L12.5394 3.12737C11.3487 2.01771 9.75604 1.33337 8.00004 1.33337C4.31837 1.33337 1.33337 4.31837 1.33337 8.00004C1.33337 11.6817 4.31837 14.6667 8.00004 14.6667C11.6817 14.6667 14.6667 11.6817 14.6667 8.00004C14.6667 7.55304 14.6207 7.11671 14.537 6.69437Z"
        fill="#FFC107" />
    <path
        d="M2.10217 4.89704L4.29251 6.50337C4.88517 5.03604 6.32051 4.00004 8.00017 4.00004C9.01984 4.00004 9.94751 4.38471 10.6538 5.01304L12.5395 3.12737C11.3488 2.01771 9.75617 1.33337 8.00017 1.33337C5.43951 1.33337 3.21884 2.77904 2.10217 4.89704Z"
        fill="#FF3D00" />
    <path
        d="M7.99982 14.6662C9.72182 14.6662 11.2865 14.0072 12.4695 12.9355L10.4062 11.1895C9.71433 11.7156 8.86897 12.0002 7.99982 11.9995C6.26582 11.9995 4.79349 10.8938 4.23882 9.35083L2.06482 11.0258C3.16815 13.1848 5.40882 14.6662 7.99982 14.6662Z"
        fill="#4CAF50" />
    <path
        d="M14.537 6.69429H14V6.66663H8V9.33329H11.7677C11.5047 10.0721 11.0311 10.7177 10.4053 11.1903L10.4063 11.1896L12.4697 12.9356C12.3237 13.0683 14.6667 11.3333 14.6667 7.99996C14.6667 7.55296 14.6207 7.11663 14.537 6.69429Z"
        fill="#1976D2" />
</svg>
