<svg width="16" height="16" viewBox="0 0 16 16" fill="none" xmlns="http://www.w3.org/2000/svg">
    <path
        d="M14.1133 10.2666L10.1733 3.69997C9.65332 2.8333 8.86666 2.33997 7.99999 2.33997C7.13332 2.33997 6.34666 2.8333 5.82666 3.6933L1.88666 10.2666C1.59332 10.7533 1.44666 11.26 1.44666 11.74C1.44666 12.12 1.53999 12.4933 1.72666 12.82C2.15332 13.5666 2.97999 14 3.99999 14H12C13.02 14 13.8467 13.5666 14.2733 12.82C14.46 12.4933 14.5533 12.14 14.5533 11.7666C14.56 11.2733 14.4133 10.76 14.1133 10.2666ZM7.99999 5.6333C8.56666 5.6333 9.03332 6.09997 9.03332 6.66663C9.03332 7.2333 8.57332 7.69997 7.99999 7.69997C7.43332 7.69997 6.96666 7.2333 6.96666 6.66663C6.96666 6.0933 7.42666 5.6333 7.99999 5.6333ZM9.12666 11.2733C9.10666 11.3 8.59332 11.8866 7.74666 11.8866H7.64666C7.30666 11.8666 7.02666 11.72 6.85999 11.4666C6.65332 11.1533 6.61999 10.7266 6.77999 10.2533L7.05332 9.43997C7.20666 8.98663 7.05999 8.9133 6.97999 8.8733L6.88666 8.85997C6.71999 8.85997 6.48666 8.95997 6.41332 8.99997C6.34666 9.0333 6.25999 9.01997 6.20666 8.9533C6.15999 8.88663 6.15999 8.79997 6.21332 8.73997C6.23332 8.7133 6.79332 8.07997 7.69332 8.1333C8.03332 8.1533 8.31332 8.29997 8.47999 8.5533C8.69332 8.86663 8.71999 9.2933 8.55999 9.7733L8.28666 10.5866C8.13332 11.04 8.27999 11.1133 8.35999 11.1533L8.45332 11.1666C8.61999 11.1666 8.85332 11.0666 8.92666 11.0333C8.99999 10.9933 9.07999 11.0133 9.13332 11.08C9.17999 11.1266 9.17999 11.2133 9.12666 11.2733Z"
        fill="#F5C044" />
</svg>
