<svg width="16" height="16" viewBox="0 0 16 16" fill="none" xmlns="http://www.w3.org/2000/svg">
    <path
        d="M2.66684 8.18662C3.40322 8.18662 4.00018 7.61354 4.00018 6.90661C4.00018 6.19969 3.40322 5.62661 2.66684 5.62661C1.93045 5.62661 1.3335 6.19969 1.3335 6.90661C1.3335 7.61354 1.93045 8.18662 2.66684 8.18662Z"
        fill="#0E0F12" />
    <path
        d="M3.67361 8.83467C4.05732 8.87031 4.09599 9.34521 3.86399 9.6529C3.53097 10.0946 3.33335 10.639 3.33335 11.2266C3.33335 11.315 3.26172 11.3866 3.17335 11.3866H0.500003C0.226668 11.3866 0 11.169 0 10.9066V10.5866C0 9.61383 0.820005 8.82663 1.83334 8.82663H3.50002C3.55851 8.82663 3.61643 8.82936 3.67361 8.83467Z"
        fill="#0E0F12" />
    <path
        d="M13.3334 8.18662C14.0698 8.18662 14.6668 7.61354 14.6668 6.90661C14.6668 6.19969 14.0698 5.62661 13.3334 5.62661C12.597 5.62661 12.0001 6.19969 12.0001 6.90661C12.0001 7.61354 12.597 8.18662 13.3334 8.18662Z"
        fill="#0E0F12" />
    <path
        d="M16 10.5866V10.9066C16 11.169 15.7733 11.3866 15.5 11.3866H12.8266C12.7383 11.3866 12.6666 11.315 12.6666 11.2266C12.6666 10.639 12.469 10.0946 12.136 9.6529C11.904 9.34521 11.9427 8.87031 12.3264 8.83467C12.3836 8.82936 12.4415 8.82663 12.5 8.82663H14.1667C15.18 8.82663 16 9.61383 16 10.5866Z"
        fill="#0E0F12" />
    <path
        d="M8.00005 8.50664C9.10462 8.50664 10.0001 7.64702 10.0001 6.58663C10.0001 5.52624 9.10462 4.66663 8.00005 4.66663C6.89547 4.66663 6.00004 5.52624 6.00004 6.58663C6.00004 7.64702 6.89547 8.50664 8.00005 8.50664Z"
        fill="#0E0F12" />
    <path
        d="M9.83354 9.46662H6.16686C5.15552 9.46662 4.33351 10.2557 4.33351 11.2266V12.1866C4.33351 12.4516 4.55751 12.6666 4.83352 12.6666H11.1669C11.4429 12.6666 11.6669 12.4516 11.6669 12.1866V11.2266C11.6669 10.2557 10.8449 9.46662 9.83354 9.46662Z"
        fill="#0E0F12" />
</svg>
